<?xml version="1.0" encoding="utf-8"?>
<!-- Generator: Adobe Illustrator 24.0.0, SVG Export Plug-In . SVG Version: 6.00 Build 0)  -->
<svg version="1.1" id="Capa_1" xmlns="http://www.w3.org/2000/svg" xmlns:xlink="http://www.w3.org/1999/xlink" x="0px" y="0px"
	 viewBox="0 0 50 50" style="enable-background:new 0 0 50 50;" xml:space="preserve">
<style type="text/css">
	.st0{fill-rule:evenodd;clip-rule:evenodd;fill:#F0F0F0;}
	.st1{fill:#F0F0F0;}
</style>
<g>
	<g>
		<g>
			<path class="st0" d="M21.88,25.09v11.62c0,0.17,0.14,0.3,0.3,0.3h4.31c0.17,0,0.3-0.14,0.3-0.3V24.91h3.13
				c0.16,0,0.29-0.12,0.3-0.28l0.3-3.56c0.01-0.18-0.12-0.33-0.3-0.33H26.8v-2.52c0-0.59,0.48-1.07,1.07-1.07h2.41
				c0.17,0,0.3-0.14,0.3-0.3v-3.56c0-0.17-0.14-0.3-0.3-0.3h-4.07c-2.39,0-4.33,1.94-4.33,4.33v3.43h-2.16c-0.17,0-0.3,0.14-0.3,0.3
				v3.56c0,0.17,0.14,0.3,0.3,0.3h2.16V25.09z"/>
		</g>
		<path class="st1" d="M25,1.25C11.91,1.25,1.25,11.91,1.25,25c0,13.09,10.65,23.75,23.75,23.75c13.09,0,23.75-10.65,23.75-23.75
			C48.75,11.91,38.09,1.25,25,1.25z M45.7,25c0,11.42-9.29,20.7-20.7,20.7C13.58,45.7,4.3,36.42,4.3,25C4.3,13.58,13.58,4.3,25,4.3
			C36.42,4.3,45.7,13.58,45.7,25z"/>
	</g>
</g>
</svg>
