<?xml version="1.0" encoding="utf-8"?>
<!-- Generator: Adobe Illustrator 24.0.0, SVG Export Plug-In . SVG Version: 6.00 Build 0)  -->
<svg version="1.1" id="Capa_1" xmlns="http://www.w3.org/2000/svg" xmlns:xlink="http://www.w3.org/1999/xlink" x="0px" y="0px"
	 viewBox="0 0 50 50" style="enable-background:new 0 0 50 50;" xml:space="preserve">
<style type="text/css">
	.st0{fill:#F0F0F0;}
</style>
<g>
	<g>
		<g>
			<path class="st0" d="M32.91,18.45c0,0.79-0.64,1.42-1.42,1.42s-1.42-0.64-1.42-1.42c0-0.79,0.64-1.42,1.42-1.42
				S32.91,17.66,32.91,18.45z M31.14,24.83c0,3.3-2.68,5.98-5.98,5.98c-3.3,0-5.98-2.68-5.98-5.98c0-3.29,2.68-5.98,5.98-5.98
				C28.46,18.85,31.14,21.53,31.14,24.83z M29,24.83c0-2.11-1.72-3.83-3.83-3.83c-2.11,0-3.83,1.72-3.83,3.83
				c0,2.11,1.72,3.83,3.83,3.83C27.28,28.66,29,26.94,29,24.83z M37.26,20.03c0-4.03-3.26-7.29-7.29-7.29h-9.95
				c-4.03,0-7.29,3.26-7.29,7.29v9.95c0,4.03,3.26,7.29,7.29,7.29h9.95c4.03,0,7.29-3.26,7.29-7.29V20.03z M34.87,29.86
				c0,2.76-2.24,5.01-5.01,5.01h-9.73c-2.76,0-5.01-2.24-5.01-5.01v-9.73c0-2.76,2.24-5.01,5.01-5.01h9.73
				c2.76,0,5.01,2.24,5.01,5.01V29.86z"/>
		</g>
		<path class="st0" d="M25,1.25C11.91,1.25,1.25,11.91,1.25,25c0,13.09,10.65,23.75,23.75,23.75S48.75,38.09,48.75,25
			C48.75,11.91,38.09,1.25,25,1.25z M25,45.7C13.58,45.7,4.3,36.42,4.3,25C4.3,13.58,13.58,4.3,25,4.3c11.42,0,20.7,9.29,20.7,20.7
			C45.7,36.42,36.42,45.7,25,45.7z"/>
	</g>
</g>
</svg>
